<?xml version="1.0" encoding="UTF-8" standalone="no"?>
<svg
   xmlns:dc="http://purl.org/dc/elements/1.1/"
   xmlns:cc="http://creativecommons.org/ns#"
   xmlns:rdf="http://www.w3.org/1999/02/22-rdf-syntax-ns#"
   xmlns:svg="http://www.w3.org/2000/svg"
   xmlns="http://www.w3.org/2000/svg"
   xmlns:sodipodi="http://sodipodi.sourceforge.net/DTD/sodipodi-0.dtd"
   xmlns:inkscape="http://www.inkscape.org/namespaces/inkscape"
   version="1.1"
   id="mb-claim-de"
   x="0"
   y="0"
   width="112"
   height="28"
   viewBox="0 0 112 28"
   enable-background="new 0 0 112 28"
   xml:space="preserve"
   sodipodi:docname="brand-without-claim.svg"
   inkscape:version="0.92.2 2405546, 2018-03-11"><metadata
     id="metadata14"><rdf:RDF><cc:Work
         rdf:about=""><dc:format>image/svg+xml</dc:format><dc:type
           rdf:resource="http://purl.org/dc/dcmitype/StillImage" /><dc:title /></cc:Work></rdf:RDF></metadata><defs
     id="defs12" /><sodipodi:namedview
     pagecolor="#ffffff"
     bordercolor="#666666"
     borderopacity="1"
     objecttolerance="10"
     gridtolerance="10"
     guidetolerance="10"
     inkscape:pageopacity="0"
     inkscape:pageshadow="2"
     inkscape:window-width="2560"
     inkscape:window-height="1088"
     id="namedview10"
     showgrid="false"
     inkscape:zoom="3.8660714"
     inkscape:cx="-3.879908"
     inkscape:cy="-17.039261"
     inkscape:window-x="0"
     inkscape:window-y="30"
     inkscape:window-maximized="0"
     inkscape:current-layer="mb-claim-de" /><g
     id="Wortmarke_Vektor_RZ_1_"
     transform="translate(0,14)"><rect
       x="70.800003"
       y="7.1599998"
       width="4.0999999"
       height="1"
       id="rect2"
       style="fill:#ffffff" /><path
       d="m 2.5,1.36 -0.4,9.5 v 0.2 c 0,0.8 0.2,1 1.5,1.1 v 0.4 c -0.9,-0.1 -1.3,-0.1 -1.8,-0.1 -0.5,0 -0.9,0 -1.8,0.1 v -0.4 c 1.3,-0.1 1.5,-0.2 1.5,-1.2 l 0.4,-9 v -0.1 c 0,-0.8 -0.3,-1 -1.5,-1.1 v -0.5 c 0.7,0.1 1,0.1 1.5,0.1 0.7,0 1,0 1.7,-0.1 l 3.4,9.3 3.5,-9.3 c 0.8,0.1 1.2,0.1 1.8,0.1 0.5,0 0.8,0 1.5,-0.1 v 0.5 c -1.2,0.1 -1.5,0.3 -1.5,1.1 v 0.1 l 0.2,9 c 0,1 0.2,1.1 1.5,1.2 v 0.4 c -1.2,-0.1 -1.6,-0.1 -2.3,-0.1 -0.7,0 -1.1,0 -2.3,0.1 v -0.4 c 1.2,-0.1 1.5,-0.3 1.5,-1.1 v -0.1 l -0.2,-9.5 -3.1,8.1 -0.2,0.6 -0.3,0.7 -0.2,0.7 -0.2,0.6 H 6.4 L 6.2,11.56 5.9,10.86 5.7,10.16 5.5,9.46 Z m 16.2,10.8 c -1.7,0 -2.4,-1.3 -2.4,-4.2 h 5.5 c 0,-2.8 -1.2,-4.3 -3.4,-4.3 -2.2,0 -3.6,1.8 -3.6,4.6 0,2.8 1.4,4.5 3.7,4.5 1.8,0 3,-1.1 3.2,-3 H 21 c -0.2,1.5 -1,2.4 -2.3,2.4 m -2.4,-4.9 c 0.2,-2.1 0.9,-3.2 2.1,-3.2 1.2,0 1.8,1 1.9,3.2 z m 6.5,-3 v -0.3 c 1,-0.1 1.7,-0.2 2.4,-0.4 0.1,0.7 0.1,1 0.2,1.5 v 0.2 c 0.4,-1 1.2,-1.7 2.1,-1.7 0.9,0 1.6,0.6 1.6,1.5 0,0.5 -0.3,0.9 -0.8,0.9 -0.4,0 -0.8,-0.3 -0.8,-0.6 0,0 0,-0.1 0,-0.2 v -0.2 -0.1 c 0,-0.3 -0.2,-0.4 -0.6,-0.4 -1,0 -1.6,1.2 -1.6,3 v 3.8 c 0,0.8 0.2,0.9 1.3,1 v 0.4 c -1,-0.1 -1.4,-0.1 -2,-0.1 -0.7,0 -1,0 -2.1,0.1 v -0.4 c 1.1,-0.1 1.3,-0.2 1.3,-1 v -5.8 -0.3 c 0,-0.8 -0.1,-0.9 -1.1,-0.9 z m 13.4,-0.8 v 3 h -0.4 c -0.3,-1.6 -1,-2.4 -2.1,-2.4 -1.4,0 -2.2,1.5 -2.2,4.1 0,2.6 0.7,3.9 2.1,3.9 1.1,0 1.8,-0.8 2,-2.4 h 0.8 c -0.2,2 -1.3,3 -2.9,3 -2.1,0 -3.6,-1.8 -3.6,-4.5 0,-2.7 1.5,-4.6 3.6,-4.6 0.8,0 1.3,0.2 1.9,0.8 l 0.5,-0.9 z m 5.4,8.7 c -1.7,0 -2.4,-1.3 -2.4,-4.2 h 5.5 c 0,-2.8 -1.2,-4.3 -3.4,-4.3 -2.2,0 -3.6,1.8 -3.6,4.6 0,2.8 1.4,4.5 3.7,4.5 1.8,0 3,-1.1 3.2,-3 h -0.7 c -0.2,1.5 -1,2.4 -2.3,2.4 m -2.4,-4.9 c 0.2,-2.1 0.9,-3.2 2.1,-3.2 1.2,0 1.8,1 1.9,3.2 z m 14,3.4 V 0.06 c -0.9,0.2 -1.7,0.4 -2.8,0.5 v 0.3 c 1.2,0 1.3,0.1 1.3,1.1 v 3.2 c -0.7,-1.1 -1.2,-1.4 -2.2,-1.4 -2,0 -3.3,1.9 -3.3,4.5 0,2.6 1.4,4.5 3.4,4.5 1,0 1.8,-0.5 2.3,-1.5 0.1,0.7 0.1,0.8 0.3,1.5 0.8,-0.2 1.1,-0.3 2.1,-0.4 h 0.3 v -0.3 c -1.3,-0.2 -1.4,-0.3 -1.4,-1.4 m -3.5,1.6 c -1.3,0 -2,-1.4 -2,-4 0,-2.7 0.6,-4 2,-4 1.4,0 2.1,1.4 2.1,4.1 -0.1,2.5 -0.8,3.9 -2.1,3.9 m 9.4,-0.1 c -1.7,0 -2.4,-1.3 -2.4,-4.2 h 5.5 c 0,-2.8 -1.2,-4.3 -3.4,-4.3 -2.2,0 -3.6,1.8 -3.6,4.6 0,2.8 1.4,4.5 3.7,4.5 1.8,0 3,-1.1 3.2,-3 h -0.7 c -0.2,1.5 -1,2.4 -2.3,2.4 m -2.4,-4.9 c 0.2,-2.1 0.9,-3.2 2.1,-3.2 1.2,0 1.8,1 1.9,3.2 z m 7,5.5 v -3.1 h 0.4 c 0.3,1.7 1.1,2.5 2.4,2.5 1.1,0 1.9,-0.7 1.9,-1.7 0,-0.6 -0.3,-1 -1.2,-1.5 l -0.7,-0.3 -0.9,-0.3 c -1.3,-0.6 -1.8,-1.1 -1.8,-2.2 0,-1.5 1.1,-2.4 2.8,-2.4 0.7,0 1.2,0.2 1.9,0.6 l 0.3,-0.8 h 0.3 v 2.8 h -0.4 c -0.2,-1.5 -0.8,-2.2 -1.9,-2.2 -1,0 -1.7,0.7 -1.7,1.5 0,0.7 0.3,1 1.9,1.7 l 0.8,0.3 c 1.4,0.6 1.9,1.2 1.9,2.3 0,1.5 -1.2,2.6 -3,2.6 -0.8,0 -1.5,-0.2 -2.2,-0.8 l -0.4,0.8 h -0.4 z m 19.8,-9.5 c 0,-1 -0.4,-1.8 -1.1,-2.3 -0.6,-0.5 -1.3,-0.7 -2.5,-0.7 h -4.8 v 0.5 c 1.3,0.1 1.5,0.2 1.5,1.2 v 8.9 c 0,1 -0.1,1.1 -1.5,1.2 v 0.4 h 4.6 c 1.4,0 2.1,-0.2 2.9,-0.6 0.9,-0.6 1.5,-1.7 1.5,-2.9 0,-1 -0.4,-1.9 -1.1,-2.4 -0.4,-0.3 -0.8,-0.5 -1.5,-0.6 1.3,-0.5 2,-1.4 2,-2.7 m -5.4,-2.4 h 1.6 c 1.5,0 2.2,0.8 2.2,2.5 0,0.8 -0.2,1.5 -0.6,1.9 -0.4,0.5 -0.9,0.6 -1.9,0.6 h -1.3 z m 1.8,5.5 c 1,0 1.5,0.2 1.9,0.6 0.4,0.4 0.7,1.2 0.7,2.1 0,1.8 -0.9,2.9 -2.6,2.9 h -0.7 c -1,0 -1.1,-0.1 -1.1,-1 v -4.6 z m 9.6,5.8 c -1.7,0 -2.4,-1.3 -2.4,-4.2 h 5.5 c 0,-2.8 -1.2,-4.3 -3.4,-4.3 -2.2,0 -3.6,1.8 -3.6,4.6 0,2.8 1.4,4.5 3.7,4.5 1.8,0 3,-1.1 3.2,-3 h -0.7 c -0.2,1.5 -1,2.4 -2.3,2.4 m -2.4,-4.9 c 0.2,-2.1 0.9,-3.2 2.1,-3.2 1.2,0 1.8,1 1.9,3.2 z m 6.4,-2.9 v -0.3 c 1.1,-0.1 1.7,-0.3 2.4,-0.6 0.1,0.4 0.1,0.9 0.2,1.6 0.7,-1 1.4,-1.4 2.5,-1.4 1.1,0 2.1,0.6 2.4,1.5 0.2,0.4 0.3,1 0.3,1.7 v 4.4 c 0,0.8 0.2,0.9 1.3,1 v 0.4 c -1,-0.1 -1.3,-0.1 -2,-0.1 -0.7,0 -1,0 -2,0.1 v -0.4 c 1,0 1.2,-0.2 1.2,-1 v -4.5 c 0,-1.6 -0.5,-2.2 -1.7,-2.2 -1.2,0 -1.9,0.8 -1.9,2.3 v 4.4 c 0,0.7 0.2,0.9 1.2,1 v 0.4 c -1,-0.1 -1.3,-0.1 -2,-0.1 -0.6,0 -1,0 -2,0.1 v -0.4 c 1.1,-0.1 1.3,-0.2 1.3,-1 v -5.7 -0.3 c 0,-0.8 -0.1,-0.9 -1,-0.9 0,0 -0.1,0 -0.2,0 m 9.8,8.2 5,-8.2 H 106 c -1.2,0 -1.5,0.3 -2.1,1.9 h -0.4 l 0.4,-2.4 h 6.3 l -5,8.2 h 2.1 c 1.2,0 1.8,-0.5 2.3,-2.2 h 0.4 l -0.5,2.6 h -6.2 z"
       id="path4"
       inkscape:connector-curvature="0"
       style="fill:#ffffff" /></g></svg>